<?xml version="1.0" encoding="UTF-8" standalone="no"?>
<svg xmlns:dc="http://purl.org/dc/elements/1.1/" xmlns:cc="http://creativecommons.org/ns#" xmlns:rdf="http://www.w3.org/1999/02/22-rdf-syntax-ns#"
    xmlns:svg="http://www.w3.org/2000/svg" xmlns="http://www.w3.org/2000/svg" viewBox="0 0 3310.6667 3605.3333" height="150"
    width="150" xml:space="preserve" id="svg2" version="1.1">
    <metadata id="metadata8">
        <rdf:RDF>
            <cc:Work rdf:about="">
                <dc:format>image/svg+xml</dc:format>
                <dc:type rdf:resource="http://purl.org/dc/dcmitype/StillImage" />
            </cc:Work>
        </rdf:RDF>
    </metadata>
    <defs id="defs6">
        <clipPath id="clipPath18" clipPathUnits="userSpaceOnUse">
            <path id="path16" d="M 0,2704 H 2483 V 0 H 0 Z" />
        </clipPath>
    </defs>
    <g transform="matrix(1.3333333,0,0,-1.3333333,0,3605.3333)" id="g10">
        <g id="g12">
            <g clip-path="url(#clipPath18)" id="g14">
                <g transform="translate(761.0977,1299.894)" id="g20">
                    <path id="path22" style="fill-opacity:1;fill-rule:nonzero;stroke:none" d="m 0,0 c 0,9.473 7.687,17.148 17.159,17.136 77.956,-0.108 155.912,-0.233 233.869,-0.305 53.284,-0.05 106.57,-0.124 159.854,0.013 112.851,0.288 202.918,74.383 221.443,185.376 22.071,132.24 -67.649,245.273 -190.992,259.499 -16.621,1.917 -33.511,2.004 -50.278,2.051 -60.665,0.168 -175.972,0.123 -218.934,0.099 -9.161,-0.005 -16.578,7.421 -16.578,16.582 0,9.119 7.36,16.528 16.479,16.582 45.232,0.266 172.174,0.657 239.63,0.423 C 531.145,497.042 636.993,411.48 662.981,294.728 693.209,158.935 604.119,19.717 467.159,-10.14 447.764,-14.367 427.525,-16.465 407.665,-16.549 294.936,-17.023 79.349,-17.063 17.143,-17.136 7.672,-17.146 0,-9.472 0,0"
                    />
                </g>
                <g transform="translate(778.2334,1310.5923)" id="g24">
                    <path id="path26" style="fill-opacity:1;fill-rule:nonzero;stroke:none" d="m 0,0 c -2.854,0 -5.539,-1.111 -7.56,-3.129 -2.023,-2.021 -3.138,-4.709 -3.138,-7.569 0,-2.864 1.114,-5.554 3.137,-7.575 2.017,-2.014 4.697,-3.123 7.548,-3.123 H 0 c 13.321,0.015 33.679,0.03 58.554,0.046 91.024,0.063 243.372,0.167 331.948,0.54 19.91,0.085 39.475,2.192 58.15,6.262 32.658,7.119 63.091,20.653 90.456,40.226 26.383,18.871 48.71,42.446 66.362,70.071 17.551,27.47 29.5,57.415 35.512,89.002 6.231,32.726 5.752,65.657 -1.42,97.88 -12.259,55.075 -43.64,105.285 -88.361,141.38 -44.746,36.116 -100.399,56.114 -156.707,56.309 -65.31,0.225 -192.227,-0.144 -239.569,-0.423 -5.558,-0.033 -10.08,-4.584 -10.08,-10.144 0,-2.713 1.054,-5.262 2.969,-7.177 1.913,-1.914 4.457,-2.968 7.163,-2.968 h 0.005 c 46.054,0.026 159.582,0.067 218.955,-0.099 15.78,-0.044 33.666,-0.094 50.998,-2.093 31.202,-3.599 60.643,-13.287 87.506,-28.797 26.225,-15.14 48.762,-35.093 66.986,-59.301 C 617.412,318.86 632.368,255.342 621.539,190.462 612.222,134.636 585.396,86.886 543.96,52.372 502.771,18.064 450.834,-0.146 393.763,-0.292 345.993,-0.415 297.432,-0.367 250.468,-0.321 l -16.581,0.016 C 175.417,-0.251 116.948,-0.167 58.48,-0.083 L 0.015,0 Z m -0.014,-34.271 c -6.287,0 -12.198,2.445 -16.646,6.888 -4.458,4.453 -6.913,10.379 -6.913,16.685 0,6.302 2.456,12.226 6.915,16.679 4.452,4.447 10.367,6.894 16.657,6.894 h 0.033 l 58.467,-0.082 c 58.466,-0.084 116.933,-0.168 175.399,-0.223 l 16.582,-0.015 c 46.953,-0.048 95.504,-0.095 143.249,0.028 54.036,0.139 103.135,17.318 141.991,49.683 39.032,32.511 64.316,77.574 73.12,130.315 10.241,61.365 -3.858,121.382 -39.699,168.993 -17.178,22.819 -38.42,41.623 -63.137,55.894 -25.33,14.625 -53.103,23.761 -82.544,27.157 -16.615,1.916 -34.117,1.965 -49.559,2.009 -59.354,0.165 -172.866,0.123 -218.912,0.099 h -0.012 c -6.148,0 -11.925,2.393 -16.27,6.741 -4.345,4.347 -6.737,10.129 -6.737,16.279 0,12.619 10.263,22.945 22.879,23.019 47.363,0.279 174.339,0.652 239.69,0.423 122.555,-0.424 230.888,-87.802 257.591,-207.767 7.556,-33.944 8.06,-68.626 1.502,-103.084 C 647.311,149.14 634.757,117.673 616.319,88.816 597.78,59.802 574.323,35.035 546.599,15.205 517.803,-5.392 485.771,-19.634 451.395,-27.128 c -19.558,-4.263 -40.027,-6.469 -60.838,-6.557 -88.6,-0.373 -240.961,-0.478 -331.994,-0.541 -24.873,-0.016 -45.228,-0.031 -58.548,-0.045 z"
                    />
                </g>
                <g transform="translate(1018.6025,819.1899)" id="g28">
                    <path id="path30" style="fill-opacity:1;fill-rule:nonzero;stroke:none" d="m 0,0 c -9.471,0 -17.161,7.686 -17.139,17.156 0.16,69.725 1.266,139.474 -0.574,209.146 -1.47,55.614 -20.717,107.642 -41.009,158.927 -0.631,1.592 -1.261,3.184 -1.902,4.794 -3.354,8.441 0.691,18.009 9.086,21.477 0.102,0.042 0.206,0.085 0.309,0.127 8.694,3.591 18.636,-0.757 21.913,-9.574 7.714,-20.764 15.406,-41.081 22.292,-61.667 C 9.527,290.897 17.723,240.118 17.053,187.7 16.326,130.869 16.93,74.021 17.131,17.178 17.165,7.698 9.479,0 0,0"
                    />
                </g>
                <g transform="translate(973.71,1225.6431)" id="g32">
                    <path id="path34" style="fill-opacity:1;fill-rule:nonzero;stroke:none" d="m 0,0 c -1.312,0 -2.626,-0.259 -3.879,-0.776 l -0.327,-0.135 c -5.09,-2.103 -7.585,-8.001 -5.542,-13.142 l 1.904,-4.801 c 21.008,-53.092 39.986,-105.365 41.459,-161.127 1.396,-52.847 1.096,-106.571 0.805,-158.526 -0.093,-16.653 -0.19,-33.874 -0.229,-50.805 -0.006,-2.851 1.101,-5.534 3.119,-7.556 2.024,-2.03 4.717,-3.148 7.583,-3.148 2.865,0 5.557,1.118 7.58,3.149 2.017,2.025 3.123,4.713 3.113,7.568 -0.047,13.198 -0.115,26.397 -0.184,39.595 -0.222,42.94 -0.453,87.343 0.106,131.033 0.65,50.852 -7.339,101.508 -23.745,150.562 -5.913,17.678 -12.305,34.836 -19.071,53.001 L 9.541,-6.643 C 8.57,-4.028 6.627,-1.975 4.07,-0.858 2.761,-0.286 1.381,0 0,0 m 44.893,-412.891 c -6.311,0 -12.241,2.46 -16.699,6.929 -4.45,4.461 -6.893,10.385 -6.878,16.681 0.039,16.951 0.135,34.182 0.229,50.846 0.289,51.854 0.589,105.473 -0.801,158.114 -1.418,53.658 -19.995,104.754 -40.559,156.728 l -1.898,4.783 c -4.63,11.653 1.027,25.023 12.609,29.807 l 0.328,0.135 c 5.814,2.398 12.214,2.337 17.999,-0.19 5.789,-2.528 10.188,-7.18 12.388,-13.1 l 3.147,-8.456 c 6.805,-18.27 13.233,-35.526 19.216,-53.411 16.865,-50.426 25.077,-102.512 24.409,-154.81 -0.558,-43.575 -0.327,-87.919 -0.106,-130.803 0.069,-13.205 0.138,-26.41 0.184,-39.615 0.023,-6.303 -2.416,-12.235 -6.867,-16.702 -4.457,-4.473 -10.388,-6.936 -16.701,-6.936"
                    />
                </g>
                <g transform="translate(1190.6064,1523.0571)" id="g36">
                    <path id="path38" style="fill-opacity:1;fill-rule:nonzero;stroke:none" d="M 0,0 H 67.899 V 34.804 H -0.124 v 67.852 h -35.18 V 34.309 h -67.765 V -0.492 h 68.644 V -68.123 H 0 Z m -68.541,68.161 v 68.308 H 33.514 V 68.604 h 68.287 V -33.802 H 33.945 v -68.306 H -68.462 v 67.836 h -68.289 V 68.161 Z"
                    />
                </g>
                <g transform="translate(1162.6191,1461.3716)" id="g40">
                    <path id="path42" style="fill-opacity:1;fill-rule:nonzero;stroke:none" d="M 0,0 H 21.55 V 68.123 H 89.449 V 90.052 H 21.426 v 67.852 H -0.879 V 89.557 H -68.645 V 67.631 H 0 Z m 34.425,-12.875 h -47.3 V 54.756 H -81.52 v 47.676 h 67.766 v 68.347 h 48.055 v -67.852 h 68.023 V 55.248 H 34.425 Z m -68.462,-21.11 h 89.532 v 68.306 h 67.856 v 89.532 H 55.063 v 67.864 h -89.179 v -68.308 h -68.21 V 33.851 h 68.289 z M 68.37,-46.86 H -46.912 v 67.836 h -68.289 v 115.308 h 68.21 v 68.308 H 67.938 v -67.864 h 68.288 V 21.446 H 68.37 Z"
                    />
                </g>
                <path id="path44" style="fill-opacity:1;fill-rule:nonzero;stroke:none" d="m 848.073,1590.978 h 32.063 v -32.441 h -32.063 z"
                />
                <path id="path46" style="fill-opacity:1;fill-rule:nonzero;stroke:none" d="m 854.511,1564.974 h 19.187 v 19.566 h -19.187 z m 32.062,-12.875 h -44.938 v 45.316 h 44.938 z"
                />
                <path id="path48" style="fill-opacity:1;fill-rule:nonzero;stroke:none" d="m 949.002,1558.219 h -32.454 v 32.568 h 32.454 z"
                />
                <path id="path50" style="fill-opacity:1;fill-rule:nonzero;stroke:none" d="m 922.985,1564.657 h 19.579 v 19.693 h -19.579 z m 32.454,-12.875 H 910.11 v 45.443 h 45.329 z"
                />
                <path id="path52" style="fill-opacity:1;fill-rule:nonzero;stroke:none" d="m 1017.62,1558.145 h -32.353 v 32.602 h 32.353 z"
                />
                <path id="path54" style="fill-opacity:1;fill-rule:nonzero;stroke:none" d="m 991.705,1564.583 h 19.478 v 19.727 h -19.478 z m 32.353,-12.875 H 978.83 v 45.477 h 45.228 z"
                />
                <path id="path56" style="fill-opacity:1;fill-rule:nonzero;stroke:none" d="m 848.13,1522.242 h 31.947 v -32.31 H 848.13 Z"
                />
                <path id="path58" style="fill-opacity:1;fill-rule:nonzero;stroke:none" d="m 854.567,1496.37 h 19.072 v 19.435 h -19.072 z m 31.948,-12.875 h -44.822 v 45.185 h 44.822 z"
                />
                <path id="path60" style="fill-opacity:1;fill-rule:nonzero;stroke:none" d="m 949.137,1489.659 h -32.602 v 32.479 h 32.602 z"
                />
                <path id="path62" style="fill-opacity:1;fill-rule:nonzero;stroke:none" d="M 922.973,1496.096 H 942.7 v 19.604 h -19.727 z m 32.601,-12.875 h -45.477 v 45.354 h 45.477 z"
                />
                <path id="path64" style="fill-opacity:1;fill-rule:nonzero;stroke:none" d="m 1017.794,1489.922 h -32.33 v 31.956 h 32.33 z"
                />
                <path id="path66" style="fill-opacity:1;fill-rule:nonzero;stroke:none" d="m 991.901,1496.36 h 19.455 v 19.081 h -19.455 z m 32.33,-12.875 h -45.205 v 44.831 h 45.205 z"
                />
                <g transform="translate(1625.6602,1530.187)" id="g68">
                    <path id="path70" style="fill-opacity:1;fill-rule:nonzero;stroke:none" d="m 0,0 c -3.852,8.473 -5.312,18.224 -6.757,27.557 -2.402,15.512 -3.219,31.282 -5.873,46.743 -26.556,154.707 -151.752,279.971 -306.624,307.014 -13.627,2.379 -27.336,4.292 -41.008,6.421 h -47.211 c -2.722,-0.688 -5.413,-1.782 -8.173,-2.004 -51.616,-4.148 -100.178,-18.74 -145.819,-42.984 -6.7,-3.559 -13.235,-7.432 -19.804,-11.421 -9.12,-5.538 -10.778,-18.094 -3.385,-25.787 5.462,-5.684 14.123,-6.699 20.84,-2.574 66.588,40.899 139.234,56.06 217.932,48.863 157.654,-14.419 290.209,-146.493 303.613,-303.808 2.044,-23.984 3.341,-47.394 14.665,-70.321 30.342,-61.425 58.132,-124.115 86.572,-186.469 2.324,-5.095 3.015,-10.935 3.991,-16.542 0.405,-2.327 -1.045,-4.641 -3.363,-5.09 -0.155,-0.03 -0.288,-0.044 -0.423,-0.045 -25.382,-0.077 -50.763,-0.144 -76.145,-0.165 -17.555,-0.015 -23.23,-5.571 -23.227,-22.861 0.01,-48.979 0.097,-97.96 0.004,-146.939 -0.1,-52.353 -35.204,-87.597 -87.383,-87.721 -45.113,-0.107 -90.227,-0.03 -135.34,-0.024 -9.387,10e-4 -16.997,-7.614 -16.997,-17 0,-9.385 7.607,-16.993 16.993,-16.993 h 16.397 v -171.091 c 0,-9.145 6.9,-17.128 16.025,-17.719 9.998,-0.647 18.311,7.27 18.311,17.13 v 172.018 c 28.129,0 55.219,-0.058 82.308,0.012 68.614,0.178 123.179,54.634 123.344,123.161 0.099,40.746 0.018,81.492 0.018,122.238 v 12.068 c 27.542,0 53.586,0.395 79.607,-0.188 0.109,-0.002 0.218,-0.004 0.326,-0.006 12.931,-0.202 23.415,10.479 23.415,23.412 v 26.952 c 0,3.457 -0.762,6.863 -2.238,9.988 C 82.805,-179.239 27.713,-60.973 0,0"
                    />
                </g>
                <g transform="translate(1362.7402,1035.5923)" id="g72">
                    <path id="path74" style="fill-opacity:1;fill-rule:nonzero;stroke:none" d="m 0,0 c -2.819,0 -5.47,-1.099 -7.464,-3.094 -1.995,-1.995 -3.094,-4.647 -3.094,-7.469 0,-5.82 4.736,-10.555 10.556,-10.555 h 22.834 v -177.529 c 0,-5.969 4.395,-10.93 10.004,-11.293 3.001,-0.202 5.876,0.826 8.062,2.875 2.189,2.051 3.395,4.832 3.395,7.83 v 178.456 h 6.437 c 8.864,0 17.624,-0.005 26.312,-0.011 19.254,-0.015 37.437,-0.026 55.98,0.022 31.477,0.082 60.885,12.181 82.809,34.069 21.923,21.887 34.038,51.247 34.114,82.671 0.068,28.128 0.051,56.731 0.034,84.393 -0.008,12.61 -0.015,25.219 -0.015,37.828 v 18.506 h 6.437 c 8.001,0 15.876,0.034 23.661,0.067 19.31,0.084 37.551,0.16 56.09,-0.256 l 0.298,-0.006 c 4.367,-0.031 8.562,1.621 11.746,4.756 3.299,3.247 5.116,7.587 5.116,12.219 v 26.953 c 0,2.526 -0.546,4.961 -1.623,7.238 -11.275,23.854 -66.558,142.5 -94.63,204.261 -4.145,9.117 -5.686,19.075 -7.176,28.705 l -0.082,0.53 c -1.136,7.334 -1.929,14.77 -2.697,21.961 -0.87,8.15 -1.768,16.579 -3.159,24.679 -6.411,37.349 -18.754,73.525 -36.683,107.52 -17.506,33.191 -39.954,63.606 -66.72,90.4 -26.763,26.791 -57.17,49.29 -90.376,66.87 -34.004,18.002 -70.208,30.441 -107.607,36.971 -9.241,1.614 -18.711,3.039 -27.872,4.419 -4.176,0.629 -8.353,1.258 -12.527,1.907 h -45.869 c -0.524,-0.148 -1.048,-0.306 -1.572,-0.464 -2.044,-0.616 -4.361,-1.314 -6.929,-1.52 -49.86,-4.008 -98.078,-18.223 -143.314,-42.253 -6.872,-3.649 -13.705,-7.728 -19.483,-11.238 -2.675,-1.624 -4.44,-4.333 -4.846,-7.433 -0.402,-3.088 0.604,-6.146 2.761,-8.39 3.354,-3.49 8.628,-4.127 12.828,-1.549 33.397,20.512 69.198,35.069 106.41,43.268 36.351,8.009 75.204,10.202 115.478,6.52 77.814,-7.117 152.346,-42.693 209.865,-100.176 57.608,-57.569 92.971,-131.971 99.577,-209.497 l 0.393,-4.678 c 1.843,-22.112 3.583,-42.998 13.63,-63.337 24.191,-48.976 47.119,-99.536 69.291,-148.43 5.779,-12.744 11.558,-25.489 17.365,-38.219 2.318,-5.083 3.196,-10.399 4.045,-15.54 0.142,-0.86 0.283,-1.718 0.432,-2.57 1.009,-5.798 -2.795,-11.413 -8.482,-12.515 -0.562,-0.106 -1.079,-0.158 -1.6,-0.162 -22.711,-0.069 -49.498,-0.143 -76.186,-0.165 -13.973,-0.012 -16.798,-2.774 -16.796,-16.422 0.003,-14.729 0.014,-29.459 0.024,-44.188 0.022,-33.681 0.047,-68.507 -0.02,-102.765 C 229.11,66.748 220.106,43.242 203.124,26.193 186.135,9.138 162.702,0.089 135.357,0.024 102.804,-0.054 69.712,-0.035 37.707,-0.017 25.139,-0.009 12.57,-0.002 0.001,0 Z m 33.59,-222.841 c -0.527,0 -1.055,0.017 -1.586,0.051 -12.363,0.801 -22.047,11.406 -22.047,24.143 v 164.654 h -9.959 c -12.92,0 -23.431,10.511 -23.431,23.43 0,6.26 2.438,12.145 6.864,16.573 4.425,4.427 10.31,6.865 16.569,6.865 h 0.003 c 12.57,-10e-4 25.142,-0.009 37.712,-0.016 31.994,-0.018 65.078,-0.036 97.611,0.04 23.859,0.058 44.148,7.796 58.676,22.381 14.533,14.59 22.239,34.962 22.285,58.915 0.066,34.241 0.042,69.059 0.019,102.731 -0.01,14.731 -0.02,29.464 -0.023,44.195 -0.004,20.793 8.589,29.281 29.659,29.299 25.532,0.022 51.158,0.09 73.191,0.156 -0.016,0.095 -0.031,0.19 -0.047,0.283 -0.744,4.509 -1.447,8.769 -3.056,12.294 -5.81,12.74 -11.593,25.493 -17.377,38.245 -22.129,48.799 -45.01,99.26 -69.109,148.044 -11.13,22.536 -13.055,45.634 -14.916,67.972 l -0.392,4.653 c -6.347,74.504 -40.387,146.059 -95.848,201.484 -55.397,55.36 -127.113,89.617 -201.936,96.461 -38.954,3.563 -76.48,1.453 -111.536,-6.272 -35.806,-7.888 -70.271,-21.907 -102.441,-41.666 -9.403,-5.774 -21.267,-4.294 -28.851,3.599 -4.88,5.078 -7.155,11.996 -6.243,18.979 0.913,6.995 4.896,13.109 10.929,16.772 5.934,3.604 12.966,7.802 20.126,11.603 46.796,24.86 96.701,39.568 148.323,43.716 1.2,0.097 2.679,0.542 4.246,1.015 0.915,0.275 1.86,0.559 2.864,0.813 l 0.777,0.197 h 48.51 l 0.492,-0.077 c 4.317,-0.671 8.637,-1.322 12.957,-1.973 9.233,-1.39 18.78,-2.828 28.168,-4.467 38.732,-6.763 76.218,-19.641 111.417,-38.276 34.344,-18.183 65.789,-41.448 93.461,-69.149 27.677,-27.707 50.892,-59.162 68.999,-93.493 18.564,-35.196 31.344,-72.66 37.985,-111.35 1.46,-8.504 2.382,-17.138 3.272,-25.49 0.752,-7.042 1.53,-14.324 2.618,-21.356 l 0.082,-0.533 c 1.358,-8.769 2.761,-17.838 6.173,-25.345 h 0.001 c 28.048,-61.71 83.284,-180.253 94.55,-204.088 1.896,-4.011 2.856,-8.296 2.856,-12.739 v -26.953 c 0,-8.11 -3.181,-15.708 -8.957,-21.394 -5.55,-5.465 -12.826,-8.458 -20.533,-8.458 -0.154,0 -0.308,10e-4 -0.464,0.003 l -0.34,0.007 c -18.396,0.412 -36.553,0.334 -55.777,0.254 -5.706,-0.025 -11.46,-0.049 -17.277,-0.061 v -5.637 c 0,-12.607 0.008,-25.214 0.015,-37.82 0.017,-27.672 0.035,-56.285 -0.034,-84.433 -0.084,-34.855 -13.541,-67.44 -37.892,-91.752 -24.345,-24.305 -56.973,-37.741 -91.872,-37.831 -18.567,-0.047 -36.762,-0.036 -56.022,-0.023 -6.577,0.004 -13.194,0.009 -19.866,0.011 v -165.58 c 0,-6.5 -2.721,-12.778 -7.464,-17.224 -4.425,-4.148 -10.097,-6.382 -16.114,-6.382"
                    />
                </g>
            </g>
        </g>
    </g>
</svg>