<?xml version="1.0" encoding="UTF-8" standalone="no"?>
<svg xmlns:dc="http://purl.org/dc/elements/1.1/" xmlns:cc="http://creativecommons.org/ns#" xmlns:rdf="http://www.w3.org/1999/02/22-rdf-syntax-ns#"
    xmlns:svg="http://www.w3.org/2000/svg" xmlns="http://www.w3.org/2000/svg" viewBox="0 0 3310.6667 3605.3333" height="150"
    width="150" xml:space="preserve" id="svg2" version="1.1">
    <metadata id="metadata8">
        <rdf:RDF>
            <cc:Work rdf:about="">
                <dc:format>image/svg+xml</dc:format>
                <dc:type rdf:resource="http://purl.org/dc/dcmitype/StillImage" />
            </cc:Work>
        </rdf:RDF>
    </metadata>
    <defs id="defs6">
        <clipPath id="clipPath18" clipPathUnits="userSpaceOnUse">
            <path id="path16" d="M 0,2704 H 2483 V 0 H 0 Z" />
        </clipPath>
    </defs>
    <g transform="matrix(1.3333333,0,0,-1.3333333,0,3605.3333)" id="g10">
        <g id="g12">
            <g clip-path="url(#clipPath18)" id="g14">
                <g transform="translate(800.8164,1305.05)" id="g20">
                    <path id="path22" style="fill-opacity:1;fill-rule:nonzero;stroke:none" d="M 0,0 C 146.52,146.465 293.887,293.775 441.415,441.248 588.567,294.035 735.868,146.673 881.986,0.494 897.762,16.269 912.497,31.002 925.616,44.121 764.099,205.676 601.75,368.063 440.182,529.67 279.01,368.457 116.841,206.247 -44.605,44.76 -30.539,30.645 -15.825,15.88 0,0 M -93.883,44.957 C 84.047,222.886 262.355,401.191 439.964,578.798 618.221,400.564 796.862,221.945 975.028,43.801 945.487,14.332 914.843,-16.237 884.517,-46.489 738.042,100.063 590.805,247.378 443.492,394.769 294.311,245.615 146.819,98.152 -0.194,-48.833 -32.376,-16.617 -62.97,14.01 -93.883,44.957"
                    />
                </g>
                <g transform="translate(765.2607,1349.803)" id="g24">
                    <path id="path26" style="fill-opacity:1;fill-rule:nonzero;stroke:none" d="M 0,0 35.564,-35.688 476.973,405.553 917.543,-35.2 952.114,-0.631 475.737,475.858 Z M 35.547,-53.817 -18.1,0.014 475.737,493.976 970.229,-0.633 917.541,-53.317 476.969,387.437 Z M -49.271,0.201 35.364,-84.526 479.05,359.074 920.079,-82.188 1001.521,-0.947 475.52,524.987 Z M 35.358,-102.646 -67.383,0.207 475.52,543.103 1019.647,-0.957 920.065,-100.296 479.046,340.957 Z"
                    />
                </g>
                <g transform="translate(873.8887,854.131)" id="g28">
                    <path id="path30" style="fill-opacity:1;fill-rule:nonzero;stroke:none" d="m 0,0 h 734.81 v 378.849 c 0,9.249 7.498,16.746 16.747,16.746 9.248,0 16.746,-7.497 16.746,-16.746 V -33.979 H -33.194 v 409.635 c 0,9.167 7.43,16.598 16.597,16.598 9.166,0 16.597,-7.431 16.597,-16.598 z"
                    />
                </g>
                <g transform="translate(847.0996,826.5568)" id="g32">
                    <path id="path34" style="fill-opacity:1;fill-rule:nonzero;stroke:none" d="m 0,0 h 788.687 v 406.423 c 0,5.702 -4.639,10.341 -10.341,10.341 -5.703,0 -10.342,-4.639 -10.342,-10.341 V 21.169 H 20.384 v 382.062 c 0,5.62 -4.571,10.192 -10.192,10.192 C 4.572,413.423 0,408.851 0,403.231 Z M 801.497,-12.811 H -12.811 v 416.042 c 0,12.683 10.32,23.002 23.003,23.002 12.684,0 23.002,-10.319 23.002,-23.002 V 33.979 h 721.999 v 372.444 c 0,12.766 10.387,23.151 23.153,23.151 12.765,0 23.151,-10.385 23.151,-23.151 z"
                    />
                </g>
                <g transform="translate(1288.8984,1112.4407)" id="g36">
                    <path id="path38" style="fill-opacity:1;fill-rule:nonzero;stroke:none" d="M 0,0 H 127.105 V 93.587 H -0.449 V 220.621 H -94.067 V 93.131 H -221.258 V -0.842 H -93.509 V -127.61 H 0 Z m 34.12,-34.248 v -127.793 h -161.955 v 127.094 h -127.537 v 162.336 h 126.815 V 254.682 H 33.811 V 128.156 H 161.162 V -34.248 Z"
                    />
                </g>
                <g transform="translate(1201.7949,991.2355)" id="g40">
                    <path id="path42" style="fill-opacity:1;fill-rule:nonzero;stroke:none" d="m 0,0 h 80.698 v 127.61 h 127.106 v 80.777 H 80.249 V 335.421 H -0.559 v -127.49 h -127.19 V 126.769 L 0,126.769 Z M 93.509,-12.811 H -12.811 V 113.958 H -140.56 V 220.741 H -13.369 V 348.232 H 93.06 V 221.197 H 220.614 V 114.8 H 93.509 Z M -34.326,-34.431 H 114.818 V 93.362 H 241.86 V 242.956 H 114.509 V 369.482 H -35.048 V 242.189 H -161.863 V 92.663 h 127.537 z m 161.955,-12.81 H -47.137 V 79.853 H -174.674 V 254.999 H -47.858 V 382.292 H 127.319 V 255.767 H 254.671 V 80.552 H 127.629 Z"
                    />
                </g>
            </g>
        </g>
    </g>
</svg>