<svg id="svg2" xmlns="http://www.w3.org/2000/svg" viewBox="0 0 150 150"><title>hc</title><g id="_7ur9Xj" data-name="7ur9Xj"><path d="M43,111.27a2,2,0,0,1-.93-2q0-27.42,0-54.85c0-1.49.41-1.9,1.91-1.9h7.6A1.36,1.36,0,0,1,53,53.71a1.33,1.33,0,0,1-.82,1.48,2.4,2.4,0,0,1-.83.12H44.93c0,.3,0,.53,0,.76q0,25.82,0,51.64c0,.65.2.78.81.78,9.39,0,18.78,0,28.18,0,1.39,0,1.94,1,1.65,1.76-.16.4-.59.7-.9,1Z"/><path d="M67.54,44.14l.67.19a6,6,0,0,1,4.5,5.45H74a4.19,4.19,0,1,1,0,8.39q-6.88,0-13.76,0a4.48,4.48,0,0,1-4.34-4,4.47,4.47,0,0,1,4.22-4.42c.43,0,.87,0,1.33,0a10.87,10.87,0,0,1,.27-1.35,5.87,5.87,0,0,1,4.68-4.18,3,3,0,0,0,.37-.12ZM67.06,55.4h6.88c.58,0,1.16-.06,1.43-.69A1.4,1.4,0,0,0,74,52.59c-.89,0-1.79,0-2.69,0a1.36,1.36,0,0,1-1.43-1.45c0-.55,0-1.09,0-1.64A2.49,2.49,0,0,0,67.41,47c-1.82-.06-2.82.66-3,2.25a13.07,13.07,0,0,0-.06,1.63c0,1.19-.49,1.67-1.67,1.68-.92,0-1.84,0-2.75,0s-1.11.41-1.12,1.23c0,1.19.32,1.54,1.55,1.55Z"/><path d="M92.45,62.3c0,2.75,0,5.5,0,8.25a1.26,1.26,0,0,1-.8,1.36,2.24,2.24,0,0,1-1.41-.12c-.53-.23-.59-.8-.59-1.36q0-5.6,0-11.2c0-1.09,0-2.18,0-3.27,0-.51-.13-.68-.66-.67-2.07,0-4.15,0-6.22,0-1,0-1.62-.51-1.63-1.37s.6-1.41,1.66-1.41h8c1.12,0,1.64.52,1.64,1.65q0,4.06,0,8.12Z"/><path d="M54.47,102.93c-.87,0-1.74,0-2.62,0a1.38,1.38,0,0,1-1.52-1.55q0-2.62,0-5.23a1.41,1.41,0,0,1,1.62-1.6q2.58,0,5.17,0a1.51,1.51,0,0,1,1.64,1.63c0,1.68,0,3.36,0,5,0,1.22-.49,1.71-1.7,1.73H54.47Zm1.41-5.53H53.17v2.68h2.71Z"/><path d="M74.23,72.16H66.12c-.94,0-1.51-.45-1.61-1.2A1.39,1.39,0,0,1,66,69.34c1.92,0,3.84,0,5.76,0H82.26a1.48,1.48,0,0,1,1.66,1.17,1.43,1.43,0,0,1-1.56,1.65c-1.85,0-3.71,0-5.56,0Z"/><path d="M54.18,71.24l3-3.74c.67-.84,1.33-1.68,2-2.51a1.41,1.41,0,1,1,2.19,1.73q-3,3.72-5.93,7.42a1.4,1.4,0,0,1-2.38.06Q52,73,50.9,71.74a1.42,1.42,0,0,1,0-2.09,1.41,1.41,0,0,1,2,.23C53.37,70.29,53.73,70.73,54.18,71.24Z"/><path d="M54.25,85.14l3.24-4.05c.57-.72,1.14-1.44,1.72-2.15a1.4,1.4,0,0,1,2-.32,1.35,1.35,0,0,1,.18,2q-3,3.8-6,7.58a1.36,1.36,0,0,1-2.21.06Q52,87,50.82,85.63a1.39,1.39,0,0,1,.12-2,1.41,1.41,0,0,1,2,.18c.4.43.79.87,1.18,1.31C54.13,85.14,54.16,85.13,54.25,85.14Z"/><path d="M67.17,86.11c-.5,0-1,0-1.5,0a1.38,1.38,0,0,1,0-2.76c1,0,2.09,0,3.14,0a1.38,1.38,0,0,1-.05,2.76C68.22,86.14,67.69,86.11,67.17,86.11Z"/><path d="M67.2,97.34c.48,0,1,0,1.44,0a1.32,1.32,0,0,1,1.29,1.37,1.34,1.34,0,0,1-1.28,1.39c-1,0-1.92,0-2.88,0a1.39,1.39,0,0,1,.06-2.77c.46,0,.92,0,1.37,0Z"/></g><g id="oCjnAc"><path d="M111.9,86.68c0,10.87-6.08,19.6-16.49,23.79a6.54,6.54,0,0,1-5.44,0c-6.77-2.93-12-7.34-14.8-14.35a24.38,24.38,0,0,1-1.53-11.88c.32-2.79,1-5.55,1.56-8.31A1.6,1.6,0,0,1,76,75a37.91,37.91,0,0,1,10.92-3.31c7.65-1.29,14.94,0,22,3a2.31,2.31,0,0,1,1.48,1.72A40.36,40.36,0,0,1,111.9,86.68ZM76,86l.23,0a22.7,22.7,0,0,0,1.69,9.59c2.79,6.49,7.89,10.4,14.36,12.74a1.63,1.63,0,0,0,1.06-.07,37,37,0,0,0,3.66-1.6c5.82-3.1,9.91-7.65,11.52-14.17,1.24-5,.67-10-.67-14.89a1.15,1.15,0,0,0-.66-.66c-2.18-.73-4.35-1.52-6.57-2.08-7.62-1.92-15-.87-22.21,2a1.52,1.52,0,0,0-.86.86C77,80.46,76.5,83.21,76,86Z"/><path d="M100.87,92.17H94.57V98.5H90.89V92.19H84.53V88.51h6.31V82.16h3.68v6.31h6.36Z"/></g></svg>