<?xml version="1.0" encoding="UTF-8" standalone="no"?>
<svg xmlns:dc="http://purl.org/dc/elements/1.1/" xmlns:cc="http://creativecommons.org/ns#" xmlns:rdf="http://www.w3.org/1999/02/22-rdf-syntax-ns#"
    xmlns:svg="http://www.w3.org/2000/svg" xmlns="http://www.w3.org/2000/svg" viewBox="0 0 3310.6667 3605.3333" height="150"
    width="150" xml:space="preserve" id="svg2" version="1.1">
    <metadata id="metadata8">
        <rdf:RDF>
            <cc:Work rdf:about="">
                <dc:format>image/svg+xml</dc:format>
                <dc:type rdf:resource="http://purl.org/dc/dcmitype/StillImage" />
            </cc:Work>
        </rdf:RDF>
    </metadata>
    <defs id="defs6">
        <clipPath id="clipPath18" clipPathUnits="userSpaceOnUse">
            <path id="path16" d="M 0,2704 H 2483 V 0 H 0 Z" />
        </clipPath>
    </defs>
    <g transform="matrix(1.3333333,0,0,-1.3333333,0,3605.3333)" id="g10">
        <g id="g12">
            <g clip-path="url(#clipPath18)" id="g14">
                <g transform="translate(584.4004,982.8802)" id="g20">
                    <path id="path22" style="fill-opacity:1;fill-rule:nonzero;stroke:none" d="m 0,0 c 11.612,-31.92 34.877,-46.47 72.006,-46.469 299.766,0.007 599.532,0.003 899.298,0.012 92.199,0.003 184.398,-0.044 276.597,0.099 32.733,0.051 59.528,19.212 65.078,46.358 z M 79.152,758.048 V 45.751 h 74.83 v 24.038 c 0.003,163.144 -0.008,401.595 0.024,564.74 0.006,26.77 5.384,32.096 32.295,32.1 313.736,0.04 627.473,0.058 941.211,0.077 27.307,0.002 32.571,-5.465 32.567,-33.372 -0.023,-165.074 -0.019,-405.457 -0.024,-570.532 V 45.524 h 74.472 V 758.048 Z M 197.607,46.625 h 918.85 v 576.133 h -918.85 z m 1080.489,-2.942 c 21.123,0 39.904,0.199 58.679,-0.06 17.016,-0.234 24.443,-8.099 24.42,-25.062 -0.08,-59.25 -50.953,-108.209 -113.088,-108.261 -171.805,-0.141 -343.61,-0.077 -515.416,-0.072 -221.512,0.006 -443.025,-0.02 -664.538,0.09 -57.515,0.028 -102.053,35.623 -113.317,90.244 -1.256,6.094 -1.756,12.431 -1.828,18.664 -0.191,16.221 7.313,24.083 23.469,24.327 19.183,0.29 38.375,0.068 59.455,0.068 0,7.569 -0.001,13.704 0,19.838 0.002,209.449 -0.001,494.205 0.009,703.654 0.002,29.693 4.859,34.573 34.261,34.573 391.388,0.002 782.776,0.002 1174.163,-0.001 28.54,0 33.737,-5.06 33.74,-33.665 0.03,-208.483 0,-492.274 -0.01,-700.757 -10e-4,-7.149 0,-14.299 0,-23.58"
                    />
                </g>
                <g transform="translate(1254.1621,1238.5872)" id="g24">
                    <path id="path26" style="fill-opacity:1;fill-rule:nonzero;stroke:none" d="m 0,0 c 1.596,4.75 3.229,9.487 4.782,14.251 20.144,61.812 40.374,123.594 60.322,185.469 3.611,11.203 7.935,20.94 21.638,21.655 13.8,0.72 19.12,-8.752 23.665,-19.475 8.271,-19.51 17.197,-38.753 25.044,-58.428 3.511,-8.801 7.975,-12.562 18.047,-12.101 20.702,0.949 41.481,0.445 62.224,0.229 15.882,-0.165 25.037,-8.441 24.823,-21.805 -0.203,-12.626 -9.326,-21.132 -24.218,-21.3 -28.462,-0.32 -56.93,-0.008 -85.394,-0.111 -12.558,-0.046 -20.886,5.325 -25.462,17.292 -3.908,10.22 -8.801,20.063 -14.692,33.293 C 86.438,126.133 83.081,116.525 79.935,106.848 59.534,44.106 39.183,-18.651 18.804,-81.4 c -0.596,-1.832 -1.479,-3.581 -1.955,-5.439 -2.96,-11.536 -9.813,-19.328 -22.147,-19.012 -13.23,0.34 -18.822,9.664 -21.598,21.523 -8.668,37.05 -17.526,74.056 -26.38,111.062 -11.433,47.782 -22.916,95.551 -34.44,143.309 -0.748,3.103 -2.025,6.078 -3.967,11.787 -11.89,-26.542 -23.14,-50.389 -33.247,-74.711 -5.619,-13.525 -14.628,-19.071 -28.978,-18.848 -28.458,0.443 -56.929,-0.036 -85.394,0.132 -16.886,0.1 -26.677,8.313 -26.791,21.799 -0.115,13.632 9.33,21.312 26.628,21.381 22.193,0.087 44.402,0.501 66.571,-0.213 9.258,-0.299 13.472,3.068 17.021,11.343 15.755,36.741 32.352,73.12 48.371,109.749 4.724,10.8 10.525,20.329 23.84,19.449 14.019,-0.927 18.627,-11.38 21.506,-23.52 C -43.035,167.782 -23.684,87.228 -4.396,6.659 -3.887,4.531 -3.244,2.435 -2.664,0.324 -1.776,0.216 -0.888,0.108 0,0"
                    />
                </g>
                <g transform="translate(1241.2471,1674.2249)" id="g28">
                    <path id="path30" style="fill-opacity:1;fill-rule:nonzero;stroke:none" d="m 0,0 c -6.749,0 -13.523,-0.377 -20.24,0.082 -12.455,0.852 -19.502,7.96 -20.125,20.293 -0.591,11.682 5.438,20.457 16.96,21.487 C -7.673,43.27 8.394,43.304 24.106,41.77 35.618,40.646 41.4,31.607 40.748,19.995 40.095,8.361 33.417,1.294 21.676,0.232 14.506,-0.416 7.229,0.113 0,0.113 Z"
                    />
                </g>
            </g>
        </g>
    </g>
</svg>