<svg xmlns:dc="http://purl.org/dc/elements/1.1/" xmlns:cc="http://creativecommons.org/ns#" xmlns:rdf="http://www.w3.org/1999/02/22-rdf-syntax-ns#"
    xmlns:svg="http://www.w3.org/2000/svg" xmlns="http://www.w3.org/2000/svg" viewBox="0 0 3310.6667 3605.3333" height="150"
    width="150" xml:space="preserve" id="svg2" version="1.1">
    <metadata id="metadata8">
        <rdf:RDF>
            <cc:Work rdf:about="">
                <dc:format>image/svg+xml</dc:format>
                <dc:type rdf:resource="http://purl.org/dc/dcmitype/StillImage" />
            </cc:Work>
        </rdf:RDF>
    </metadata>
    <defs id="defs6">
        <clipPath id="clipPath18" clipPathUnits="userSpaceOnUse">
            <path id="path16" d="M 0,2704 H 2483 V 0 H 0 Z" />
        </clipPath>
    </defs>
    <g transform="matrix(1.3333333,0,0,-1.3333333,0,3605.3333)" id="g10">
        <g id="g12">
            <g clip-path="url(#clipPath18)" id="g14">
                <g transform="translate(981.377,1266.7194)" id="g20">
                    <path id="path22" style="fill-opacity:1;fill-rule:nonzero;stroke:none" d="m 0,0 c 1.523,-62.266 7.828,-122.126 21.437,-182.885 62.605,26.591 127.037,38.335 192.746,43.134 V -0.607 c -4.001,0.24 -7.058,0.582 -10.116,0.584 C 136.77,0.007 69.471,0 0,0 m 459.021,-182.889 c 13.691,60.918 19.601,121.223 21.636,181.89 H 266.834 v -141.13 c 66.421,-2.505 129.128,-17.243 192.187,-40.76 M 0.247,54.085 H 214.01 V 224.99 C 147.14,227.888 83.739,242.691 21.281,265.893 5.631,194.924 -0.746,125.149 0.247,54.085 m 482.946,-2.847 c -1.192,73.278 -5.165,144.442 -24.306,215.72 C 397.18,239.237 333.219,230.479 269.086,222.937 V 51.238 Z M 540.751,0.851 c -2.263,-28.194 -3.44,-55.843 -6.932,-83.196 -4.681,-36.677 -10.501,-73.248 -17.272,-109.597 -1.904,-10.223 1.136,-13.401 9.06,-18.34 32.504,-20.257 64.369,-41.547 96.282,-62.737 5.145,-3.417 9.808,-7.854 13.886,-12.525 9.413,-10.779 8.738,-27.781 -0.976,-37.905 -8.286,-8.635 -22.287,-8.515 -34.194,-0.194 -27.413,19.157 -54.922,38.175 -82.496,57.099 -4.727,3.245 -9.962,5.75 -16.27,9.341 -3.898,-12.283 -7.392,-23.675 -11.123,-34.988 -18.807,-57.015 -42.374,-111.727 -78.042,-160.546 -2.631,-3.6 -5.239,-7.269 -8.284,-10.504 -10.995,-11.682 -25.325,-13.654 -35.907,-5.178 -11.948,9.571 -14.959,27.255 -5.233,39.579 42.55,53.922 67.36,116.118 85.805,181.375 1.187,4.201 2.072,8.487 3.371,13.862 -57.903,23.738 -116.86,38.577 -180.78,40.717 0,-7.254 -0.001,-12.933 0,-18.613 0.017,-82.604 0.064,-165.209 -0.008,-247.813 -0.005,-5.757 0.039,-11.787 -1.559,-17.213 -3.383,-11.496 -16.779,-19.783 -28.129,-18.451 -13.673,1.606 -24.298,12.803 -24.433,27.394 -0.352,37.949 -0.149,75.905 -0.15,113.858 0,47.33 0.037,94.66 0.001,141.99 -0.004,4.827 -0.395,9.654 -0.689,16.367 -62.709,-3.28 -121.896,-17.062 -182.193,-41.006 11.773,-32.307 20.985,-64.566 35.113,-94.505 15.909,-33.713 35.593,-65.73 54.9,-97.722 11.919,-19.751 6.471,-41.507 -13.687,-46.026 -13.054,-2.926 -22.032,3.047 -29.701,13.189 -38.164,50.468 -63.153,107.407 -82.763,167.033 -3.726,11.329 -7.274,22.717 -12.27,38.355 -33.538,-23.836 -65.251,-45.915 -96.437,-68.713 -18.494,-13.519 -40.248,-7.584 -45.396,13.474 -3.073,12.574 2.831,22.276 12.42,28.884 34.092,23.497 68.251,46.947 103.278,68.998 9.646,6.071 12.299,10.403 9.768,21.744 -13.148,58.911 -19.952,118.714 -22.305,179.023 -0.137,3.525 -0.416,7.044 -0.754,12.637 -4.955,0 -9.647,-0.001 -14.34,0 -65.191,0.017 -130.381,-0.007 -195.573,0.082 -16.396,0.023 -27.389,7.525 -30.687,20.447 -4.823,18.897 8.218,34.538 29.727,34.641 52.688,0.252 105.377,0.093 158.066,0.098 16.417,0.001 32.835,0 50.022,0 1.031,19.878 0.966,38.595 3.155,57.044 6.411,53.988 13.175,107.95 21.1,161.732 1.738,11.793 -1.016,16.535 -10.891,22.681 -33.636,20.935 -66.285,43.461 -99.192,65.557 -3.646,2.449 -6.939,5.711 -9.685,9.162 -8.333,10.469 -7.791,26.879 0.812,35.732 9.288,9.557 23.237,9.891 35.282,1.508 28.542,-19.868 57.238,-39.517 85.956,-59.13 3.581,-2.446 7.679,-4.135 12.203,-6.526 8.065,23.55 15.402,46.313 23.64,68.744 16.366,44.569 37.205,86.895 65.25,125.408 3.649,5.01 7.512,10.15 12.266,14.01 10.328,8.387 26.387,8.162 34.567,0.358 10,-9.541 11.912,-26.501 2.921,-37.882 C 77.212,457.923 52.485,393.27 33.645,325.832 c -0.475,-1.697 -0.661,-3.475 -1.272,-6.796 57.01,-24.06 116.183,-38.239 180.361,-41.184 0,5.668 0,10.369 -0.001,15.07 -0.012,82.159 -0.028,164.317 -0.037,246.476 -0.001,4.018 -0.221,8.06 0.126,12.05 1.299,14.886 12.943,26.294 26.952,26.641 13.316,0.33 25.264,-10.007 27.649,-24.381 0.723,-4.359 0.47,-8.899 0.471,-13.356 0.019,-81.712 0.008,-163.424 0.004,-245.136 V 276.6 c 78.339,0.653 150.067,22.206 219.619,56.902 24.547,-43.093 35.128,-89.241 39.703,-136.773 4.529,-47.055 6.984,-94.308 10.513,-143.773 3.425,0 8.105,0 12.785,0 39.738,-0.005 79.478,0.138 119.215,-0.09 C 684.83,52.78 695.212,44.863 697.586,32.75 700.123,19.8 693.483,7.257 681.232,2.457 678.433,1.36 675.229,0.791 672.218,0.817 629.474,1.186 586.73,1.706 543.986,2.137 c -0.802,0.008 -1.612,-0.62 -3.235,-1.286"
                    />
                </g>
                <g transform="translate(1706.3184,1422.9193)" id="g24">
                    <path id="path26" style="fill-opacity:1;fill-rule:nonzero;stroke:none" d="m 0,0 c 1.352,-0.081 2.702,-0.162 4.054,-0.243 0.643,1.721 0.978,3.649 1.976,5.133 49.506,73.6 99.405,146.941 148.41,220.872 13.567,20.468 18.026,44.641 18.914,68.897 C 177.527,408.71 69.137,495.135 -41.98,466.725 -153.62,438.182 -205.899,314.326 -144.817,216.827 -99.64,144.714 -49.844,75.494 -2.149,4.955 -1.158,3.489 -0.704,1.66 0,0 M -3.636,524.544 C 113.486,523.657 203.537,448.084 222.705,337.113 231.445,286.509 216.319,240.799 190.119,198.3 167.657,161.864 144.68,125.717 120.876,90.146 92.101,47.147 62.319,4.819 32.773,-37.662 c -18.324,-26.347 -55.408,-27.323 -73.72,-0.526 -52.082,76.219 -105.721,151.551 -154.008,230.144 -71.349,116.13 -17.724,266.617 109.229,316.146 27.718,10.814 56.202,17.258 82.09,16.442"
                    />
                </g>
                <g transform="translate(1331.792,1798.0516)" id="g28">
                    <path id="path30" style="fill-opacity:1;fill-rule:nonzero;stroke:none" d="m 0,0 c 5.684,7.144 10.033,16.527 17.369,20.896 10.532,6.273 24.18,5.352 31.488,-5.334 16.531,-24.172 31.77,-49.3 46.215,-74.786 C 100.761,-69.26 94.215,-82.902 83.817,-88.84 73.46,-94.755 57.035,-92.76 49.794,-82.355 34.312,-60.11 20.04,-37.012 5.625,-14.043 3.616,-10.842 3.599,-6.392 2.66,-2.521 1.773,-1.68 0.887,-0.84 0,0"
                    />
                </g>
                <g transform="translate(1678.8359,1733.0082)" id="g32">
                    <path id="path34" style="fill-opacity:1;fill-rule:nonzero;stroke:none" d="m 0,0 c 0,23.936 -0.04,46.125 0.012,68.315 0.047,19.844 10.928,32.884 27.224,32.774 16.432,-0.112 27.123,-12.78 27.302,-32.923 0.197,-22.195 0.045,-44.393 0.045,-68.211 25.877,0 49.866,0.271 73.845,-0.105 13.584,-0.214 24.175,-9.627 26.463,-22.201 2.175,-11.956 -4.253,-24.751 -15.985,-29.403 -5.173,-2.051 -11.269,-2.347 -16.959,-2.415 -21.777,-0.261 -43.56,-0.106 -67.345,-0.106 0,-14.192 0.043,-26.997 -0.013,-39.801 -0.052,-12.051 0.489,-24.159 -0.495,-36.138 -1.218,-14.83 -14.179,-25.884 -27.951,-25.199 -13.962,0.694 -25.746,12.594 -26.044,27.292 -0.389,19.193 -0.104,38.4 -0.109,57.6 -10e-4,4.8 0,9.6 0,16.275 -23.205,0 -44.94,-0.129 -66.673,0.087 -5.724,0.056 -11.796,0.16 -17.085,2.019 -11.538,4.054 -18.883,17.497 -16.943,28.944 2.176,12.838 12.514,22.617 25.798,22.97 19.186,0.511 38.396,0.193 57.597,0.225 C -12.097,0.007 -6.878,0 0,0"
                    />
                </g>
                <g transform="translate(1812.2021,1324.7228)" id="g36">
                    <path id="path38" style="fill-opacity:1;fill-rule:nonzero;stroke:none" d="m 0,0 v 0 c -14.449,0 -26.244,-11.565 -26.547,-26.01 -0.113,-5.396 -0.246,-10.292 -0.387,-13.191 -2.381,-49.072 -10.463,-97.257 -25.288,-144.469 -97.753,-311.33 -437.604,-475.172 -741.971,-357.594 -238.219,92.024 -387.228,337.132 -357.204,588.326 15.289,127.923 67.407,238.729 157.96,330.605 96.446,97.855 213.878,152.929 350.359,166.576 85.233,8.523 168.191,-3.696 248.901,-32.023 18.434,-6.469 33.21,-1.466 38.599,12.579 5.76,15.011 -1.919,29.076 -20.27,35.988 -120.28,45.302 -243.261,51.106 -367.003,19.226 -292.161,-75.271 -482.905,-341.015 -462.49,-641.378 6.722,-98.91 36.106,-190.843 88.116,-274.982 166.575,-269.469 498.089,-369.759 786.329,-238.598 208.829,95.026 349.751,309.212 357.34,537.435 0.073,2.158 0.103,6.219 0.109,10.898 C 26.571,-11.928 14.684,0 0,0"
                    />
                </g>
            </g>
        </g>
    </g>
</svg>